# xmcd CD database file
#
# Track frame offsets:
#	150
#	13975
#	33655
#	60267
#	84855
#	103145
#	129960
#	151580
#	181225
#	204502
#	229077
#	251312
#	278757
#
# Disc length: 4123 seconds
#
# Revision: 2
# Processed by: cddbd v1.4PL0 Copyright (c) Steve Scherf et al.
# Submitted via: CDex 1.50beta10
#
DISCID=9a10190d
DTITLE=John Primer - Stuff You Got To Watch
DYEAR=1992
DGENRE=Blues
TTITLE0=Stuff You To Watch
TTITLE1=See See Baby
TTITLE2=Inflation Blues
TTITLE3=Cairo
TTITLE4=Lawhorn Special
TTITLE5=Double Trouble
TTITLE6=Rhinestone Cowboy
TTITLE7=Fed Up Baby
TTITLE8=Baby Bring Your Clothes Back Home
TTITLE9=That's All I Need
TTITLE10=I'm Gonna Ride Until I Get Satisfied
TTITLE11=Travelin' Blues
TTITLE12=The Mojo
EXTD=Label:Earwig\nCode:4924CD\nAAD YEAR: 1992
EXTT0=
EXTT1=
EXTT2=
EXTT3=
EXTT4=
EXTT5=
EXTT6=
EXTT7=
EXTT8=
EXTT9=
EXTT10=
EXTT11=
EXTT12=
PLAYORDER=
